<svg width="105" height="35" viewBox="0 0 105 35" fill="none" xmlns="http://www.w3.org/2000/svg">
<rect x="1" y="0.67627" width="103" height="33" rx="4" fill="black"/>
<path fill-rule="evenodd" clip-rule="evenodd" d="M65.5695 24.6641C64.1624 24.6641 63.1327 23.9971 63.0142 22.9811L61.3767 22.981C61.4801 24.8341 63.0806 26.0063 65.451 26.0063C67.9845 26.0063 69.5774 24.8059 69.5774 22.8892C69.5774 21.3907 68.6662 20.5463 66.4731 20.0492L65.2955 19.7721C63.9178 19.4458 63.3546 19.0196 63.3546 18.2953C63.3546 17.3866 64.2364 16.7622 65.525 16.7622C66.8136 16.7622 67.6953 17.3793 67.792 18.4017H69.4068C69.3546 16.6341 67.8063 15.4199 65.5477 15.4199C63.2655 15.4199 61.6584 16.6341 61.6584 18.4017C61.6584 19.8293 62.5696 20.7091 64.5323 21.1635L65.9175 21.4834C67.3028 21.8097 67.8878 22.2858 67.8878 23.081C67.8878 23.997 66.9178 24.6641 65.5695 24.6641ZM37.7012 23.0665H33.627L32.6485 25.8356H30.9229L34.7819 15.5907H36.5749L40.4339 25.8356H38.6788L37.7012 23.0665ZM34.0489 21.7887H37.2785L35.6864 17.2947H35.6419L34.0489 21.7887ZM45.516 25.9137C47.472 25.9137 48.7682 24.4225 48.7682 22.1013C48.7682 19.7867 47.4644 18.2881 45.4866 18.2881C44.4689 18.2567 43.5155 18.764 43.0052 19.6086H42.9758V18.3663H41.4275V28.3066H43.0271V24.6069H43.0641C43.5526 25.4569 44.505 25.9644 45.516 25.9137ZM47.124 22.1013C47.124 20.5891 46.3087 19.5949 45.0646 19.5949C43.8424 19.5949 43.0204 20.6101 43.0204 22.1013C43.0204 23.6063 43.8424 24.6142 45.0646 24.6142C46.3087 24.6142 47.124 23.6273 47.124 22.1013ZM54.0932 25.9137C56.0492 25.9137 57.3454 24.4225 57.3454 22.1013C57.3454 19.7867 56.0417 18.2881 54.0638 18.2881C53.046 18.2567 52.0927 18.764 51.5824 19.6086H51.553V18.3663H50.0046V28.3066H51.6043V24.6069H51.6413C52.1298 25.4569 53.0822 25.9644 54.0932 25.9137ZM55.7012 22.1013C55.7012 20.5891 54.8859 19.5949 53.6418 19.5949C52.4196 19.5949 51.5975 20.6101 51.5975 22.1013C51.5975 23.6063 52.4196 24.6142 53.6418 24.6142C54.8859 24.6142 55.7012 23.6273 55.7012 22.1013ZM73.0296 16.5986V18.3663H74.5116V19.5804H73.0296V23.6982C73.0296 24.3379 73.3263 24.636 73.9778 24.636C74.1537 24.633 74.3294 24.6212 74.504 24.6005V25.8074C74.2111 25.8598 73.9134 25.8836 73.6155 25.8783C72.0378 25.8783 71.4224 25.3103 71.4224 23.8617V19.5804H70.2894V18.3663H71.4224V16.5986H73.0296ZM79.0658 18.2744C76.8139 18.2744 75.3698 19.7512 75.3698 22.1013C75.3698 24.4579 76.7996 25.9282 79.0658 25.9282C81.3328 25.9282 82.7626 24.4579 82.7626 22.1013C82.7626 19.7512 81.3253 18.2744 79.0658 18.2744ZM81.1328 22.1013C81.1328 20.4892 80.362 19.5377 79.0658 19.5377C77.7696 19.5377 76.9997 20.4965 76.9997 22.1013C76.9997 23.7199 77.7696 24.6642 79.0658 24.6642C80.362 24.6642 81.1327 23.7199 81.1327 22.1013H81.1328ZM85.6071 18.3663H84.0815L84.0815 25.8356H85.6811V21.4052C85.6278 20.957 85.7816 20.5089 86.1021 20.1785C86.4225 19.8481 86.8777 19.6685 87.3479 19.6868C87.5912 19.68 87.8339 19.7112 88.0666 19.7794V18.3453C87.8868 18.3067 87.7029 18.2875 87.5186 18.2881C86.6393 18.2559 85.8569 18.8192 85.6441 19.6376H85.6071V18.3663ZM95.4418 23.6418C95.2266 24.9977 93.8489 25.9282 92.0862 25.9282C89.8192 25.9282 88.4121 24.4724 88.4121 22.1368C88.4121 19.7939 89.8268 18.2744 92.019 18.2744C94.1751 18.2744 95.5309 19.694 95.5309 21.9587V22.484H90.0268V22.5767C89.9754 23.1327 90.1758 23.6832 90.5769 24.088C90.978 24.4928 91.5412 24.7129 92.1232 24.6923C92.8995 24.7621 93.6313 24.3348 93.9229 23.6418L95.4418 23.6418ZM93.9304 21.4125H90.0344C90.033 20.9082 90.2419 20.4243 90.6146 20.0683C90.9872 19.7123 91.4928 19.5138 92.019 19.5168C92.541 19.506 93.044 19.7045 93.4069 20.0643C93.7697 20.4242 93.9595 20.9128 93.9304 21.4125Z" fill="white"/>
<path fill-rule="evenodd" clip-rule="evenodd" d="M52.1543 7.63696H52.9192V12.8021H52.1543V7.63696ZM35.6607 8.55426C35.1925 8.08044 34.5274 7.8328 33.8483 7.87951H31.9932V12.8022H33.8483C35.3782 12.8022 36.265 11.8982 36.265 10.3255C36.3506 9.67813 36.1288 9.02807 35.6607 8.55426ZM33.7592 12.106H32.7909V8.57516H33.7592C34.2419 8.54948 34.7114 8.73192 35.0391 9.07257C35.3669 9.41323 35.5187 9.87645 35.453 10.3355C35.5238 10.7965 35.3742 11.2636 35.0456 11.6071C34.7171 11.9505 34.2445 12.1338 33.7592 12.106ZM37.166 10.943C37.0996 10.2771 37.4327 9.63273 38.0257 9.28003C38.6187 8.92733 39.369 8.92733 39.962 9.28003C40.555 9.63273 40.8881 10.2771 40.8217 10.943C40.8894 11.6096 40.5566 12.2553 39.9631 12.6087C39.3696 12.9622 38.6182 12.9622 38.0247 12.6087C37.4311 12.2553 37.0983 11.6096 37.166 10.943ZM38.9951 9.66685C39.6575 9.66685 40.0349 10.1378 40.0349 10.943H40.0349C40.0349 11.7515 39.6575 12.222 38.9951 12.222C38.3303 12.222 37.9562 11.7547 37.9562 10.943C37.9562 10.1378 38.3302 9.66685 38.9951 9.66685ZM45.681 12.8021H44.8875L44.0865 10.066H44.026L43.2283 12.8021H42.4423L41.3739 9.08716H42.1498L42.8441 11.9219H42.9013L43.6981 9.08716H44.432L45.2288 11.9219H45.2893L45.9803 9.08716H46.7452L45.681 12.8021ZM48.3801 9.08716H47.6438L47.6438 12.8021H48.4087V10.6288C48.3812 10.3816 48.4678 10.1352 48.6457 9.95424C48.8236 9.77329 49.075 9.67582 49.3342 9.68738C49.8999 9.68738 50.1705 9.98428 50.1705 10.5813V12.802H50.9355V10.3972C50.9915 10.0339 50.8722 9.66598 50.6112 9.39718C50.3503 9.12839 49.9759 8.98793 49.5939 9.01546C49.1005 8.97702 48.636 9.24281 48.4373 9.67731H48.3801V9.08716ZM54.8423 9.27997C54.2493 9.63267 53.9161 10.2771 53.9825 10.943C53.9149 11.6096 54.2478 12.2553 54.8413 12.6087C55.4349 12.9622 56.1863 12.9622 56.7798 12.6087C57.3734 12.2553 57.7062 11.6096 57.6386 10.943C57.705 10.2771 57.3718 9.63267 56.7788 9.27997C56.1857 8.92726 55.4354 8.92726 54.8423 9.27997ZM56.8514 10.943C56.8514 10.1378 56.474 9.66685 55.8116 9.66685C55.1467 9.66685 54.7727 10.1378 54.7727 10.943C54.7727 11.7547 55.1467 12.222 55.8116 12.222C56.474 12.222 56.8514 11.7515 56.8514 10.943ZM59.8854 10.6425C58.9633 10.6973 58.4439 11.0828 58.4439 11.7515C58.4452 12.0686 58.5863 12.3703 58.8325 12.5821C59.0786 12.794 59.4068 12.8961 59.7358 12.8633C60.2052 12.8841 60.6499 12.6613 60.9 12.28H60.9605V12.8021H61.6969V10.2638C61.6969 9.47912 61.1488 9.01547 60.1771 9.01547C59.2979 9.01547 58.6717 9.42475 58.5935 10.0628H59.334C59.4189 9.80019 59.7148 9.64993 60.1418 9.64993C60.6647 9.64993 60.9353 9.87148 60.9353 10.2638V10.5845L59.8854 10.6425ZM60.9353 11.4341V11.1235L59.9888 11.1815C59.4551 11.2157 59.213 11.3898 59.213 11.7173C59.213 12.0516 59.5156 12.2462 59.9317 12.2462C60.178 12.2701 60.4239 12.1971 60.6131 12.044C60.8023 11.891 60.9186 11.6708 60.9353 11.4341ZM64.3111 9.02554C63.3318 9.02554 62.7022 9.76917 62.7022 10.943C62.7022 12.1197 63.3251 12.8633 64.3111 12.8633C64.8109 12.881 65.2798 12.6313 65.5282 12.2151H65.5887V12.8021H66.3217V7.63696H65.5568V9.67729H65.4996C65.2687 9.25765 64.8055 9.0037 64.3111 9.02554ZM63.4924 10.943C63.4924 11.731 63.8799 12.2051 64.528 12.2051C65.1726 12.2051 65.5711 11.7241 65.5711 10.9462C65.5711 10.172 65.1685 9.68417 64.528 9.68417C63.884 9.68417 63.4923 10.1615 63.4923 10.943H63.4924ZM70.3461 9.28003C69.7531 9.63273 69.42 10.2771 69.4865 10.943C69.4187 11.6096 69.7516 12.2553 70.3451 12.6087C70.9386 12.9622 71.69 12.9622 72.2835 12.6087C72.877 12.2553 73.2098 11.6096 73.1421 10.943C73.2086 10.2771 72.8754 9.63273 72.2824 9.28003C71.6895 8.92733 70.9391 8.92733 70.3461 9.28003ZM72.3553 10.943C72.3553 10.1378 71.9779 9.66685 71.3155 9.66685C70.6507 9.66685 70.2766 10.1378 70.2766 10.943C70.2766 11.7547 70.6507 12.222 71.3155 12.222C71.9779 12.222 72.3553 11.7515 72.3553 10.943ZM74.9048 9.08716H74.1684V12.8021H74.9334V10.6288C74.9059 10.3816 74.9925 10.1352 75.1704 9.95424C75.3483 9.77329 75.5997 9.67582 75.8588 9.68738C76.4245 9.68738 76.6952 9.98428 76.6952 10.5813V12.802H77.4601V10.3972C77.5162 10.0339 77.3969 9.66598 77.1359 9.39718C76.8749 9.12839 76.5006 8.98793 76.1186 9.01546C75.6252 8.97702 75.1607 9.24281 74.9619 9.67731H74.9048V9.08716ZM81.7823 8.16227V9.10409H82.6221V9.72163H81.7823V11.6319C81.7823 12.021 81.9496 12.1914 82.3304 12.1914C82.4279 12.1911 82.5253 12.1854 82.6221 12.1745V12.7852C82.4847 12.8087 82.3455 12.8212 82.206 12.8226C81.3553 12.8226 81.0166 12.5358 81.0166 11.8196V9.7216H80.4013V9.10405H81.0166V8.16227H81.7823ZM84.4251 7.63696H83.6669L83.6669 12.8021H84.4319V10.6324C84.4082 10.3775 84.5032 10.1256 84.6913 9.94399C84.8795 9.7624 85.1417 9.66968 85.4078 9.69059C85.9482 9.69059 86.2366 9.99111 86.2366 10.5845V12.8021H87.0023V10.4036C87.0529 10.0423 86.9328 9.67807 86.6747 9.41025C86.4165 9.14243 86.0473 8.99887 85.6674 9.01868C85.1666 8.97972 84.6939 9.24585 84.4856 9.68416H84.4251V7.63696ZM91.4624 11.799C91.2479 12.4998 90.5404 12.9525 89.7829 12.8738C89.2661 12.8869 88.7694 12.6815 88.4246 12.3123C88.0798 11.943 87.9218 11.4472 87.9925 10.9563C87.9237 10.4641 88.0811 9.96743 88.424 9.59506C88.7668 9.22269 89.2614 9.01123 89.7795 9.01546C90.858 9.01546 91.5086 9.72166 91.5086 10.8882V11.144H88.7717V11.1851C88.7475 11.4608 88.8457 11.7335 89.0422 11.9361C89.2387 12.1387 89.5153 12.2524 89.8039 12.2494C90.1782 12.2924 90.5424 12.1145 90.726 11.799L91.4624 11.799ZM90.7294 10.6018H88.7717C88.7682 10.3456 88.8728 10.099 89.0618 9.9178C89.2508 9.73661 89.5081 9.63623 89.7753 9.63945C90.039 9.63366 90.293 9.73487 90.4747 9.91814C90.6564 10.1014 90.7489 10.3497 90.7294 10.6018Z" fill="white"/>
<path fill-rule="evenodd" clip-rule="evenodd" d="M21.2169 7.87061C21.3002 8.9136 20.9561 9.94665 20.2576 10.7504C19.5799 11.5583 18.553 12.0236 17.4715 12.0129C17.4027 11 17.7569 10.0023 18.456 9.23978C19.1639 8.4669 20.1497 7.97804 21.2169 7.87061ZM24.6372 13.999C23.3931 14.7321 22.6276 16.0249 22.6088 17.4244C22.6106 19.0079 23.5999 20.4369 25.1215 21.0538C24.8289 21.9649 24.3878 22.826 23.8145 23.6051C23.0447 24.7088 22.2375 25.7872 20.9564 25.8071C20.3471 25.8206 19.9359 25.6527 19.5073 25.4777C19.0603 25.2952 18.5944 25.105 17.8655 25.105C17.0924 25.105 16.6057 25.3013 16.1363 25.4906C15.7307 25.6542 15.338 25.8127 14.7845 25.8347C13.5645 25.878 12.632 24.6566 11.8342 23.5632C10.2396 21.3302 8.99789 17.2704 10.6626 14.5079C11.4443 13.1615 12.9059 12.3072 14.5126 12.2574C15.2046 12.2438 15.8686 12.4994 16.4507 12.7235C16.8959 12.8949 17.2933 13.0479 17.6186 13.0479C17.9046 13.0479 18.2909 12.901 18.741 12.7297C19.4501 12.46 20.3177 12.13 21.2018 12.2189C22.5757 12.2601 23.8488 12.9198 24.6372 13.999Z" fill="white"/>
<rect x="1" y="0.67627" width="103" height="33" rx="4" stroke="white" stroke-miterlimit="0" stroke-linejoin="bevel"/>
</svg>
