<svg width="112" height="34" viewBox="0 0 112 34" fill="none" xmlns="http://www.w3.org/2000/svg">
<rect x="1" y="1.17627" width="110" height="32" rx="4" fill="black"/>
<path fill-rule="evenodd" clip-rule="evenodd" d="M39.6325 19.6242V21.0642H43.1525C43.0973 21.7425 42.8101 22.3825 42.3377 22.8802C41.6255 23.5924 40.64 23.976 39.6243 23.9362C37.4643 23.9362 35.7132 22.217 35.7132 20.0962C35.7132 17.9755 37.4643 16.2562 39.6243 16.2562C40.6166 16.2403 41.5748 16.6115 42.2888 17.2882L43.3236 16.2722C42.3498 15.3041 41.0183 14.7644 39.6325 14.7762C37.6598 14.7009 35.8032 15.6912 34.794 17.3571C33.7848 19.023 33.7848 21.0975 34.794 22.7634C35.8032 24.4293 37.6598 25.4196 39.6325 25.3442C41.0436 25.4068 42.4132 24.8672 43.3888 23.8642C44.2424 22.9434 44.6982 21.7328 44.6599 20.4882C44.6625 20.185 44.6352 19.8823 44.5784 19.5842L39.6325 19.6242ZM48.6688 18.5762C46.7573 18.5806 45.211 20.1048 45.214 21.9816C45.217 23.8583 46.7682 25.3777 48.6796 25.3762C50.5911 25.3748 52.1399 23.853 52.1399 21.9762C52.1533 21.0677 51.7905 20.1928 51.1346 19.5518C50.4787 18.9109 49.5859 18.5588 48.6606 18.5762H48.6688ZM52.8081 21.9868C52.8021 20.1112 54.3443 18.5851 56.2547 18.5762C57.18 18.5588 58.0728 18.9109 58.7287 19.5518C59.3846 20.1928 59.7474 21.0677 59.734 21.9762C59.7339 23.8519 58.1868 25.3733 56.2764 25.3762C54.366 25.3791 52.814 23.8625 52.8081 21.9868ZM54.2112 22.871C54.5833 23.6357 55.3936 24.0994 56.2547 24.0402C56.7952 24.0279 57.3076 23.8018 57.6759 23.4132C58.0441 23.0245 58.2368 22.5064 58.2103 21.9762C58.2082 21.1288 57.6786 20.3687 56.8749 20.0595C56.0712 19.7503 55.1567 19.9549 54.5688 20.5755C53.9809 21.196 53.8391 22.1063 54.2112 22.871ZM46.6198 22.8771C46.9945 23.6413 47.8073 24.1027 48.6688 24.0402H48.6606C49.2011 24.0279 49.7136 23.8018 50.0818 23.4132C50.45 23.0245 50.6427 22.5064 50.6162 21.9762C50.6138 21.1281 50.0833 20.3677 49.2786 20.0592C48.4738 19.7507 47.5588 19.957 46.9718 20.5792C46.3847 21.2014 46.2451 22.1129 46.6198 22.8771ZM73.5858 18.5762C74.9367 18.6251 76.1167 19.4876 76.5517 20.7442L76.7229 21.1042L72.0866 22.9842C72.3772 23.634 73.0428 24.0433 73.7651 24.0162C74.4624 24.018 75.1093 23.6594 75.468 23.0722L76.6495 23.8722C76.0063 24.8174 74.9228 25.3824 73.7651 25.3762C72.8448 25.3895 71.9586 25.0347 71.3101 24.3935C70.6616 23.7523 70.3065 22.8797 70.3266 21.9762C70.2702 21.0935 70.5886 20.2272 71.2061 19.5831C71.8235 18.939 72.6849 18.5745 73.5858 18.5762ZM71.8258 21.8802C71.7924 21.3804 71.9654 20.8883 72.3057 20.5151C72.646 20.1419 73.125 19.9188 73.6347 19.8962C74.172 19.8615 74.6785 20.1448 74.9221 20.6162L71.8258 21.8802ZM69.5851 25.1762H68.0614V15.1762H69.5851V25.1762ZM65.568 19.3362H65.511C65.0465 18.8264 64.3825 18.5353 63.6858 18.5362C61.8363 18.6243 60.3828 20.1222 60.3828 21.9402C60.3828 23.7582 61.8363 25.2562 63.6858 25.3442C64.3848 25.3558 65.0531 25.0628 65.511 24.5442H65.5599V25.0322C65.5599 26.3362 64.851 27.0322 63.7103 27.0322C62.9332 27.0144 62.2442 26.5371 61.9666 25.8242L60.6384 26.3682C61.1499 27.5897 62.3652 28.3841 63.7103 28.3762C65.4947 28.3762 66.9695 27.3442 66.9695 24.8322V18.7762H65.568V19.3362ZM63.8218 24.04L63.8243 24.0402H63.8162L63.8218 24.04ZM65.1948 23.3985C64.8451 23.787 64.3493 24.0186 63.8218 24.04C62.7335 23.9446 61.8992 23.0492 61.8992 21.9762C61.8992 20.9024 62.7348 20.0065 63.8243 19.9122C64.3508 19.9388 64.8441 20.1728 65.1923 20.5614C65.5405 20.95 65.7142 21.4602 65.674 21.9762C65.7189 22.4947 65.5458 23.0086 65.1948 23.3985ZM80.0473 15.1762V25.1762H81.571V21.3842H83.6977C84.8813 21.4677 86.0134 20.895 86.6311 19.9002C87.2489 18.9054 87.2489 17.6551 86.6311 16.6603C86.0134 15.6654 84.8813 15.0927 83.6977 15.1762H80.0473ZM81.5629 19.9762H83.6895L83.7221 20.0002C84.6874 20.0002 85.4699 19.232 85.4699 18.2842C85.4699 17.3365 84.6874 16.5682 83.7221 16.5682H81.5629V19.9762ZM93.0843 18.5362C91.9507 18.4697 90.8849 19.0699 90.371 20.0642L91.7236 20.6162C91.9961 20.1232 92.5393 19.8345 93.1088 19.8802C93.4995 19.8354 93.8922 19.9466 94.1986 20.1888C94.5051 20.431 94.6995 20.7839 94.7384 21.1682V21.2722C94.249 21.0178 93.7033 20.8859 93.1495 20.8882C91.691 20.8882 90.2162 21.6882 90.2162 23.1362C90.2453 23.76 90.5301 24.3457 91.0059 24.7601C91.4816 25.1744 92.1079 25.3823 92.7421 25.3362C93.5237 25.3913 94.2736 25.0232 94.6977 24.3762H94.7466V25.1762H96.2132V21.3282C96.2132 19.5762 94.8606 18.5602 93.1251 18.5602L93.0843 18.5362ZM91.7073 23.1682C91.7073 23.7682 92.3999 24.0162 92.8969 24.0162L92.9377 24.0402C93.8556 24.0183 94.6168 23.3358 94.7221 22.4402C94.2993 22.2085 93.821 22.0925 93.3369 22.1042C92.571 22.1042 91.7073 22.3682 91.7073 23.1682ZM101.558 18.7762L99.8147 23.1122H99.7658L97.9569 18.7762H96.3273L99.0406 24.8402L97.4925 28.2082H99.0814L103.253 18.7762H101.558ZM89.3851 25.1762H87.8614V15.1762H89.3851V25.1762Z" fill="white"/>
<path fill-rule="evenodd" clip-rule="evenodd" d="M57.1266 7.3922C56.1653 8.39121 56.1653 9.95318 57.1266 10.9522C58.1182 11.9204 59.7201 11.9204 60.7117 10.9522C61.6771 9.95479 61.6771 8.38961 60.7117 7.3922C60.2375 6.92319 59.5923 6.65942 58.9192 6.65942C58.246 6.65942 57.6008 6.92319 57.1266 7.3922ZM38.7606 10.9682C39.1789 10.5395 39.3997 9.96118 39.3717 9.3682C39.3718 9.24749 39.3609 9.12701 39.3392 9.0082H36.968V9.5842H38.7362C38.7241 9.947 38.5795 10.2934 38.3288 10.5602C37.7703 11.0902 36.9419 11.2383 36.2289 10.9356C35.516 10.6329 35.0586 9.93875 35.0695 9.1762C35.0518 8.67157 35.2442 8.18163 35.6024 7.81935C35.9607 7.45707 36.4538 7.25372 36.968 7.2562C37.4796 7.22875 37.9746 7.43914 38.3043 7.8242L38.7362 7.4002C38.5276 7.16464 38.2651 6.98096 37.9703 6.8642C37.6536 6.73113 37.3125 6.66307 36.968 6.6642C36.2922 6.64941 35.6403 6.91006 35.1673 7.3842C34.4393 8.10366 34.2215 9.18148 34.6146 10.1193C35.0077 11.0572 35.9351 11.6723 36.968 11.6802C37.6415 11.7037 38.2933 11.4448 38.7606 10.9682ZM40.9036 7.3682H43.1036V6.7762H40.2517V11.5762H43.1036V10.9842H40.9036V9.4642H42.908V8.8882H40.9036V7.3682ZM45.7762 11.5762H45.1488V7.3682H43.7799V6.7762H47.1777V7.3682H45.7762V11.5762ZM50.2006 6.7762H49.5732V11.5762H50.2006V6.7762ZM52.9873 11.5762H52.3599V7.3682H50.991V6.7762H54.348V7.3682H52.9873V11.5762ZM63.0829 6.7762H62.3169V11.5762H62.9525V7.6642L65.4377 11.5762H66.0895V6.7762H65.4621V10.5122L63.0829 6.7762ZM57.591 10.5522C58.3254 11.2702 59.5129 11.2702 60.2473 10.5522C60.9686 9.77153 60.9686 8.58086 60.2473 7.8002C59.5129 7.08215 58.3254 7.08215 57.591 7.8002C56.8697 8.58086 56.8697 9.77153 57.591 10.5522Z" fill="white" stroke="white" stroke-width="0.2"/>
<path d="M9.24004 7.20834C8.97446 7.52123 8.84042 7.92178 8.86522 8.32834V26.0243C8.84042 26.4309 8.97446 26.8315 9.24004 27.1443L9.29708 27.2003L19.3926 17.2963V17.0643L9.29708 7.15234L9.24004 7.20834Z" fill="url(#paint0_linear_4103_6053)"/>
<path d="M22.7333 20.6003L19.3926 17.2963V17.0643L22.7333 13.7523L22.8067 13.7923L26.8074 16.0243C27.9481 16.6563 27.9481 17.6963 26.8074 18.3363L22.8229 20.5603L22.7333 20.6003Z" fill="url(#paint1_linear_4103_6053)"/>
<path d="M22.8309 20.5523L19.3923 17.1763L9.23975 27.1443C9.71944 27.5583 10.4314 27.5785 10.9346 27.1923L22.839 20.5523" fill="url(#paint2_linear_4103_6053)"/>
<path d="M22.8312 13.8003L10.9267 7.16029C10.4235 6.77411 9.71163 6.79427 9.23193 7.20829L19.3927 17.1763L22.8312 13.8003Z" fill="url(#paint3_linear_4103_6053)"/>
<path opacity="0.2" d="M22.7331 20.4802L10.9264 27.0802C10.4433 27.4349 9.77994 27.4349 9.29678 27.0802L9.23975 27.1362L9.29678 27.1922C9.77903 27.5496 10.4442 27.5496 10.9264 27.1922L22.8309 20.5522L22.7331 20.4802Z" fill="black"/>
<path opacity="0.12" fill-rule="evenodd" clip-rule="evenodd" d="M22.7334 20.4803L26.8074 18.2163C27.2285 18.0122 27.5294 17.6281 27.6223 17.1763C27.5803 17.6758 27.2695 18.1152 26.8074 18.3283L22.8067 20.5523L22.7334 20.4803ZM8.86345 26.068C8.87691 26.42 9.00847 26.7595 9.24004 27.0323L9.29708 27.0963L9.24004 27.1523C8.98225 26.8486 8.84839 26.4622 8.86345 26.068ZM8.86345 26.068C8.86391 26.0561 8.8645 26.0442 8.86522 26.0323V25.9123C8.86205 25.9643 8.86147 26.0163 8.86345 26.068Z" fill="black"/>
<path opacity="0.25" d="M10.9266 7.27234L26.8073 16.1363C27.2283 16.3404 27.5293 16.7245 27.6221 17.1763C27.5801 16.6768 27.2694 16.2375 26.8073 16.0243L10.9266 7.16034C9.78582 6.52834 8.85693 7.05634 8.85693 8.33634V8.45634C8.88138 7.16834 9.79397 6.64034 10.9266 7.27234Z" fill="white"/>
<rect x="1" y="1.17627" width="110" height="32" rx="4" stroke="white" stroke-miterlimit="0" stroke-linejoin="bevel"/>
<defs>
<linearGradient id="paint0_linear_4103_6053" x1="14.9708" y1="-4.87083" x2="-1.15482" y2="-0.502763" gradientUnits="userSpaceOnUse">
<stop stop-color="#00A0FF"/>
<stop offset="0.01" stop-color="#00A1FF"/>
<stop offset="0.26" stop-color="#00BEFF"/>
<stop offset="0.51" stop-color="#00D2FF"/>
<stop offset="0.76" stop-color="#00DFFF"/>
<stop offset="1" stop-color="#00E3FF"/>
</linearGradient>
<linearGradient id="paint1_linear_4103_6053" x1="28.2985" y1="9.01607" x2="8.58813" y2="9.01607" gradientUnits="userSpaceOnUse">
<stop stop-color="#FFE000"/>
<stop offset="0.41" stop-color="#FFBD00"/>
<stop offset="0.78" stop-color="#FFA500"/>
<stop offset="1" stop-color="#FF9C00"/>
</linearGradient>
<linearGradient id="paint2_linear_4103_6053" x1="8.94143" y1="11.9983" x2="-3.69482" y2="33.6473" gradientUnits="userSpaceOnUse">
<stop stop-color="#FF3A44"/>
<stop offset="1" stop-color="#C31162"/>
</linearGradient>
<linearGradient id="paint3_linear_4103_6053" x1="1.31195" y1="4.45309" x2="6.95215" y2="14.1204" gradientUnits="userSpaceOnUse">
<stop stop-color="#32A071"/>
<stop offset="0.07" stop-color="#2DA771"/>
<stop offset="0.48" stop-color="#15CF74"/>
<stop offset="0.8" stop-color="#06E775"/>
<stop offset="1" stop-color="#00F076"/>
</linearGradient>
</defs>
</svg>
