<svg width="159" height="159" viewBox="0 0 159 159" fill="none" xmlns="http://www.w3.org/2000/svg">
<path fill-rule="evenodd" clip-rule="evenodd" d="M43.8533 63.985C42.3823 67.3934 41.3837 71.0525 40.9381 74.8803H0.907227C1.53822 63.8171 4.44945 53.3639 9.17794 43.9817L43.8533 63.985Z" fill="#FF9B27"/>
<path fill-rule="evenodd" clip-rule="evenodd" d="M56.3917 48.1096C53.3637 50.369 50.6741 53.0564 48.4128 56.0827L13.7383 36.0794C19.6625 27.0905 27.3764 19.383 36.3727 13.4636L56.3917 48.1096Z" fill="#987BFF"/>
<path fill-rule="evenodd" clip-rule="evenodd" d="M75.1878 0.632568V40.6304C71.3569 41.0757 67.6947 42.0734 64.2835 43.5432L44.2637 8.89647C53.6528 4.17188 64.1147 1.26304 75.1878 0.632568Z" fill="#32C200"/>
<path fill-rule="evenodd" clip-rule="evenodd" d="M115.262 8.89647L95.2424 43.5432C91.8311 42.0734 88.1698 41.0757 84.3389 40.6304V0.632568C95.4104 1.26304 105.872 4.17188 115.262 8.89647Z" fill="#ACACAC"/>
<path fill-rule="evenodd" clip-rule="evenodd" d="M145.801 36.0794L111.126 56.0827C108.865 53.0564 106.175 50.369 103.146 48.1096L123.166 13.4636C132.163 19.383 139.876 27.0905 145.801 36.0794Z" fill="#FA5F00"/>
<path fill-rule="evenodd" clip-rule="evenodd" d="M158.631 74.8803H118.6C118.154 71.0525 117.156 67.3934 115.685 63.985L150.36 43.9817C155.088 53.3639 158 63.8171 158.631 74.8803Z" fill="#00D2B0"/>
<path fill-rule="evenodd" clip-rule="evenodd" d="M158.655 84.0059C156.29 125.48 121.881 158.383 79.7811 158.383C37.6814 158.383 3.27266 125.48 0.907227 84.0059H40.9381C43.1994 103.437 59.7274 118.518 79.7811 118.518C99.8348 118.518 116.363 103.437 118.624 84.0059H158.655Z" fill="#3885FF"/>
</svg>
