<svg width="20" height="20" viewBox="0 0 20 20" fill="none" xmlns="http://www.w3.org/2000/svg">
<path fill-rule="evenodd" clip-rule="evenodd" d="M5.11315 9.23792L2.28474 12.0663C1.89422 12.4569 1.89422 13.09 2.28474 13.4805L3.37486 14.5707C4.18376 14.0347 5.28434 14.1231 5.99703 14.8358C6.70972 15.5485 6.7981 16.6491 6.26219 17.458L7.35231 18.5481C7.74283 18.9386 8.37599 18.9386 8.76652 18.5481L11.5949 15.7197L10.4164 14.5412C10.091 14.2158 10.091 13.6881 10.4164 13.3627C10.7419 13.0373 11.2695 13.0373 11.5949 13.3627L12.7734 14.5412L18.5481 8.76652C18.9386 8.376 18.9386 7.74284 18.5481 7.35231L17.458 6.26219C16.6491 6.79811 15.5485 6.70972 14.8358 5.99703C14.1231 5.28435 14.0347 4.18377 14.5707 3.37487L13.4805 2.28475C13.09 1.89422 12.4568 1.89422 12.0663 2.28475L6.29166 8.05942L7.47016 9.23792C7.7956 9.56336 7.7956 10.091 7.47016 10.4164C7.14473 10.7419 6.61709 10.7419 6.29166 10.4164L5.11315 9.23792ZM8.05941 12.1842C7.73398 11.8587 7.73398 11.3311 8.05941 11.0057C8.38485 10.6802 8.91248 10.6802 9.23792 11.0057L9.82717 11.5949C10.1526 11.9204 10.1526 12.448 9.82717 12.7734C9.50173 13.0989 8.9741 13.0989 8.64867 12.7734L8.05941 12.1842Z" fill="white"/>
</svg>
