<?xml version="1.0" encoding="UTF-8"?>
<svg width="823px" height="326px" viewBox="0 0 823 326" version="1.1" xmlns="http://www.w3.org/2000/svg" xmlns:xlink="http://www.w3.org/1999/xlink">
    <title>webookcom-slogan-light@0.5x</title>
    <g id="webookcom-slogan-light" stroke="none" stroke-width="1" fill="none" fill-rule="evenodd">
        <g id="webook.com" transform="translate(36.927923, 71.113149)" fill="#FFFFFF" fill-rule="nonzero">
            <polygon id="Path" points="27.9150301 110.886851 0 32.7866281 27.2964145 32.7866281 38.0448609 70.5221813 51.6544047 32.7866281 71.2954508 32.7866281 85.3689562 70.5221813 95.9627488 32.7866281 123.259163 32.7866281 95.1894793 110.886851 75.5484332 110.886851 61.6295816 73.5379324 47.4014223 110.886851"></polygon>
            <path d="M196.947214,69.362277 C196.947214,71.5789829 196.741008,74.5947341 196.328598,78.4095305 L140.575865,78.4095305 C141.55534,82.430532 143.591616,85.6267128 146.684694,87.9980727 C149.777772,90.3694326 153.489466,91.5551125 157.819775,91.5551125 C161.479918,91.5551125 164.418342,90.8720577 166.635048,89.5059482 C168.851754,88.1398387 170.243639,86.348431 170.810704,84.131725 L195.709982,84.131725 C194.524302,92.7407924 190.554852,99.6100035 183.801632,104.739358 C177.048411,109.868713 168.671324,112.43339 158.670372,112.43339 C151.09233,112.43339 144.145793,110.641982 137.830758,107.059167 C131.515724,103.476351 126.541023,98.5532018 122.906656,92.2897186 C119.272289,86.0262354 117.455106,79.1312487 117.455106,71.6047586 C117.455106,60.2119208 121.373005,50.6362665 129.208803,42.8777955 C137.044601,35.1193245 146.71047,31.2400891 158.20641,31.2400891 C165.165836,31.2400891 171.622637,32.9155064 177.576812,36.266341 C183.530987,39.6171757 188.247931,44.2310172 191.727644,50.1078656 C195.207357,55.9847141 196.947214,62.4028512 196.947214,69.362277 Z M141.735769,62.4028512 L170.346742,62.4028512 C170.037434,59.309773 168.58111,56.7708714 165.977769,54.7861463 C163.374428,52.8014212 160.345789,51.8090586 156.891852,51.8090586 C149.365362,51.8090586 144.313334,55.3403228 141.735769,62.4028512 Z" id="Shape"></path>
            <path d="M248.133121,31.2400891 C254.628585,31.2400891 260.595648,33.0701603 266.03431,36.7303027 C271.472973,40.3904452 275.751731,45.3264824 278.870585,51.5384143 C281.989438,57.7503462 283.548865,64.5422302 283.548865,71.9140664 C283.548865,83.100699 280.107816,92.6505777 273.225717,100.563703 C266.343618,108.476827 257.979419,112.43339 248.133121,112.43339 C238.389925,112.43339 230.786108,108.747472 225.32167,101.375636 L225.32167,110.886851 L199.958429,110.886851 L199.958429,0 L225.32167,0 L225.32167,42.2978434 C230.786108,34.9260072 238.389925,31.2400891 248.133121,31.2400891 Z M242.101618,88.2300535 C246.689684,88.2300535 250.607583,86.644851 253.855315,83.4744459 C257.103047,80.3040408 258.726913,76.450581 258.726913,71.9140664 C258.726913,67.3260005 257.115935,63.4596529 253.893979,60.3150234 C250.672022,57.170394 246.741236,55.5980793 242.101618,55.5980793 C237.41045,55.5980793 233.441,57.170394 230.193268,60.3150234 C226.945536,63.4596529 225.32167,67.3260005 225.32167,71.9140664 C225.32167,76.450581 226.945536,80.3040408 230.193268,83.4744459 C233.441,86.644851 237.41045,88.2300535 242.101618,88.2300535 Z" id="Shape"></path>
            <path d="M296.303277,42.916459 C304.035972,35.1322124 313.65029,31.2400891 325.14623,31.2400891 C336.64217,31.2400891 346.282264,35.1322124 354.066511,42.916459 C361.850757,50.7007056 365.74288,60.418126 365.74288,72.0687203 C365.74288,79.6467617 363.964361,86.5288605 360.407321,92.7150168 C356.850281,98.901173 351.978683,103.734108 345.792527,107.213821 C339.60637,110.693533 332.724271,112.43339 325.14623,112.43339 C313.65029,112.43339 304.04886,108.592818 296.34194,100.911674 C288.63502,93.2305298 284.781561,83.616212 284.781561,72.0687203 C284.781561,60.3665747 288.622133,50.6491543 296.303277,42.916459 Z M325.14623,55.5980793 C320.712818,55.5980793 317.0269,57.1575062 314.088476,60.27636 C311.150052,63.3952137 309.680839,67.3260005 309.680839,72.0687203 C309.680839,76.6567862 311.150052,80.4715826 314.088476,83.5131094 C317.0269,86.5546362 320.712818,88.0753996 325.14623,88.0753996 C329.682745,88.0753996 333.433102,86.5546362 336.397302,83.5131094 C339.361502,80.4715826 340.843602,76.6567862 340.843602,72.0687203 C340.843602,67.3260005 339.361502,63.3952137 336.397302,60.27636 C333.433102,57.1575062 329.682745,55.5980793 325.14623,55.5980793 Z" id="Shape"></path>
            <path d="M378.497292,42.916459 C386.229987,35.1322124 395.844305,31.2400891 407.340245,31.2400891 C418.836186,31.2400891 428.476279,35.1322124 436.260526,42.916459 C444.044772,50.7007056 447.936896,60.418126 447.936896,72.0687203 C447.936896,79.6467617 446.158376,86.5288605 442.601336,92.7150168 C439.044296,98.901173 434.172698,103.734108 427.986542,107.213821 C421.800386,110.693533 414.918287,112.43339 407.340245,112.43339 C395.844305,112.43339 386.242875,108.592818 378.535955,100.911674 C370.829036,93.2305298 366.975576,83.616212 366.975576,72.0687203 C366.975576,60.3665747 370.816148,50.6491543 378.497292,42.916459 Z M407.340245,55.5980793 C402.906833,55.5980793 399.220915,57.1575062 396.282491,60.27636 C393.344067,63.3952137 391.874855,67.3260005 391.874855,72.0687203 C391.874855,76.6567862 393.344067,80.4715826 396.282491,83.5131094 C399.220915,86.5546362 402.906833,88.0753996 407.340245,88.0753996 C411.87676,88.0753996 415.627117,86.5546362 418.591317,83.5131094 C421.555517,80.4715826 423.037617,76.6567862 423.037617,72.0687203 C423.037617,67.3260005 421.555517,63.3952137 418.591317,60.27636 C415.627117,57.1575062 411.87676,55.5980793 407.340245,55.5980793 Z" id="Shape"></path>
            <polygon id="Path" points="534.074586 110.886851 501.597265 110.886851 476.466005 77.1722992 476.466005 110.886851 451.102765 110.886851 451.102765 0 476.466005 0 476.466005 64.1813711 500.514688 32.7866281 531.522796 32.7866281 501.442611 70.6768352"></polygon>
            <path d="M542.005072,111.906046 C539.762843,111.906046 537.868838,111.14165 536.323058,109.612857 C534.777279,108.084064 534.004389,106.215539 534.004389,104.007282 C534.004389,101.765053 534.777279,99.8795414 536.323058,98.3507484 C537.868838,96.8219555 539.762843,96.057559 542.005072,96.057559 C544.281275,96.057559 546.192266,96.8219555 547.738046,98.3507484 C549.283825,99.8795414 550.056715,101.765053 550.056715,104.007282 C550.056715,106.215539 549.283825,108.084064 547.738046,109.612857 C546.192266,111.14165 544.281275,111.906046 542.005072,111.906046 Z" id="Path"></path>
            <path d="M580.323827,111.906046 C572.849728,111.906046 566.581677,109.375044 561.519673,104.313041 C556.45767,99.2510376 553.926668,92.9490133 553.926668,85.406968 C553.926668,77.8649227 556.45767,71.5459117 561.519673,66.4499352 C566.581677,61.3539586 572.849728,58.8059703 580.323827,58.8059703 C584.366635,58.8059703 588.163137,59.6383132 591.713334,61.3029988 C595.263531,62.9676845 598.193718,65.2778605 600.503894,68.233527 C602.81407,71.1891934 604.223957,74.4845915 604.733554,78.1197215 L592.859929,78.1197215 C592.214439,75.7755723 590.719619,73.8306079 588.37547,72.2848283 C586.031321,70.7390488 583.34744,69.966159 580.323827,69.966159 C576.07718,69.966159 572.526983,71.4439922 569.673236,74.3996586 C566.819489,77.355325 565.392615,81.0244281 565.392615,85.406968 C565.392615,89.7555346 566.827982,93.3991579 569.698716,96.3378377 C572.569449,99.2765175 576.111153,100.745857 580.323827,100.745857 C583.381413,100.745857 586.090774,99.9474878 588.451909,98.3507484 C590.813045,96.7540091 592.316358,94.6986319 592.961849,92.1846168 L604.835474,92.1846168 C604.15601,97.9260837 601.472129,102.648355 596.783831,106.351432 C592.095533,110.054508 586.608865,111.906046 580.323827,111.906046 Z" id="Path"></path>
            <path d="M614.209082,66.4499352 C619.271085,61.3539586 625.539136,58.8059703 633.013235,58.8059703 C640.487334,58.8059703 646.772372,61.3539586 651.868348,66.4499352 C656.964325,71.5459117 659.512313,77.8649227 659.512313,85.406968 C659.512313,92.9490133 656.964325,99.2510376 651.868348,104.313041 C646.772372,109.375044 640.487334,111.906046 633.013235,111.906046 C625.539136,111.906046 619.271085,109.375044 614.209082,104.313041 C609.147078,99.2510376 606.616077,92.9490133 606.616077,85.406968 C606.616077,77.8649227 609.147078,71.5459117 614.209082,66.4499352 Z M643.714786,74.3996586 C640.827066,71.4439922 637.259882,69.966159 633.013235,69.966159 C628.766588,69.966159 625.216391,71.4439922 622.362644,74.3996586 C619.508897,77.355325 618.082024,81.0244281 618.082024,85.406968 C618.082024,89.7555346 619.517391,93.3991579 622.388124,96.3378377 C625.258857,99.2765175 628.800561,100.745857 633.013235,100.745857 C637.259882,100.745857 640.827066,99.2680242 643.714786,96.3123578 C646.602506,93.3566914 648.046366,89.7215615 648.046366,85.406968 C648.046366,81.0244281 646.602506,77.355325 643.714786,74.3996586 Z" id="Shape"></path>
            <path d="M724.075347,58.8059703 C730.292438,58.8059703 735.328962,60.6999749 739.184918,64.4879842 C743.040873,68.2759934 744.968851,73.3464901 744.968851,79.6994742 L744.968851,110.886851 L733.146185,110.886851 L733.146185,82.2984223 C733.146185,78.4594533 732.160963,75.4443338 730.190519,73.2530639 C728.220075,71.0617939 725.519207,69.966159 722.087916,69.966159 C718.928411,69.966159 716.24453,71.0023409 714.036273,73.0747047 C711.828017,75.1470685 710.723888,78.221641 710.723888,82.2984223 L710.723888,110.886851 L699.054102,110.886851 L699.054102,82.2984223 C699.054102,78.4594533 698.051893,75.4443338 696.047476,73.2530639 C694.043059,71.0617939 691.308218,69.966159 687.842954,69.966159 C684.717421,69.966159 682.042034,71.0023409 679.816791,73.0747047 C677.591548,75.1470685 676.478926,78.221641 676.478926,82.2984223 L676.478926,110.886851 L664.911059,110.886851 L664.911059,59.8761254 L676.478926,59.8761254 L676.478926,67.0614523 C678.211558,64.1737323 680.479268,62.0758886 683.282055,60.7679213 C686.084842,59.459954 688.998042,58.8059703 692.021654,58.8059703 C699.529727,58.8059703 704.795569,61.7956099 707.819182,67.7748891 C709.246055,65.0230617 711.437325,62.8402851 714.392992,61.2265592 C717.348658,59.6128333 720.57611,58.8059703 724.075347,58.8059703 Z" id="Path"></path>
        </g>
        <g id="fun-things-to-do" transform="translate(441.148438, 211.007812)" fill="#FFFFFF" fill-rule="nonzero">
            <path d="M15.2109375,6.6328125 C13.9921875,6.6328125 13.0078125,6.93359375 12.2578125,7.53515625 C11.5078125,8.13671875 11.1328125,9.046875 11.1328125,10.265625 L11.1328125,11.4140625 L16.9453125,11.4140625 L16.9453125,17.859375 L11.1328125,17.859375 L11.1328125,34.9921875 L4.3828125,34.9921875 L4.3828125,17.859375 L0,17.859375 L0,11.4140625 L4.3828125,11.4140625 L4.3828125,10.125 C4.3828125,7.03125 5.23046875,4.6015625 6.92578125,2.8359375 C8.62109375,1.0703125 10.875,0.1875 13.6875,0.1875 C14.828125,0.1875 15.9140625,0.3203125 16.9453125,0.5859375 L16.9453125,6.8203125 C16.5234375,6.6953125 15.9453125,6.6328125 15.2109375,6.6328125 Z M36.0234375,11.4140625 L42.796875,11.4140625 L42.796875,34.9921875 L36.0234375,34.9921875 L36.0234375,31.875 C34.5390625,34.265625 32.4140625,35.4609375 29.6484375,35.4609375 C26.6328125,35.4609375 24.2617188,34.5078125 22.5351562,32.6015625 C20.8085938,30.6953125 19.9453125,28.0703125 19.9453125,24.7265625 L19.9453125,11.4140625 L26.71875,11.4140625 L26.71875,23.859375 C26.71875,25.421875 27.140625,26.6679688 27.984375,27.5976562 C28.828125,28.5273438 29.9609375,28.9921875 31.3828125,28.9921875 C32.7734375,28.9921875 33.8945312,28.5273438 34.7460938,27.5976562 C35.5976562,26.6679688 36.0234375,25.421875 36.0234375,23.859375 L36.0234375,11.4140625 Z M60.703125,10.9453125 C63.71875,10.9453125 66.0859375,11.8945312 67.8046875,13.7929688 C69.5234375,15.6914062 70.3828125,18.3125 70.3828125,21.65625 L70.3828125,34.9921875 L63.609375,34.9921875 L63.609375,22.5234375 C63.609375,20.9921875 63.1835938,19.7578125 62.3320312,18.8203125 C61.4804688,17.8828125 60.359375,17.4140625 58.96875,17.4140625 C57.5625,17.4140625 56.4335938,17.8789062 55.5820312,18.8085938 C54.7304688,19.7382812 54.3046875,20.9765625 54.3046875,22.5234375 L54.3046875,34.9921875 L47.53125,34.9921875 L47.53125,11.4140625 L54.3046875,11.4140625 L54.3046875,14.5078125 C55.8671875,12.1328125 58,10.9453125 60.703125,10.9453125 Z M99.9140625,17.859375 L94.125,17.859375 L94.125,25.2890625 C94.125,26.5078125 94.4960938,27.421875 95.2382812,28.03125 C95.9804688,28.640625 96.96875,28.9453125 98.203125,28.9453125 C98.859375,28.9453125 99.4296875,28.8828125 99.9140625,28.7578125 L99.9140625,34.9921875 C98.9453125,35.2421875 97.859375,35.3671875 96.65625,35.3671875 C93.828125,35.3671875 91.5703125,34.484375 89.8828125,32.71875 C88.1953125,30.953125 87.3515625,28.5078125 87.3515625,25.3828125 L87.3515625,17.859375 L82.96875,17.859375 L82.96875,11.4140625 L87.3515625,11.4140625 L87.3515625,5.2265625 L94.125,5.2265625 L94.125,11.4140625 L99.9140625,11.4140625 L99.9140625,17.859375 Z M116.8125,10.9453125 C119.828125,10.9453125 122.195312,11.8945312 123.914062,13.7929688 C125.632812,15.6914062 126.492188,18.3125 126.492188,21.65625 L126.492188,34.9921875 L119.71875,34.9921875 L119.71875,22.5234375 C119.71875,20.9921875 119.292969,19.7578125 118.441406,18.8203125 C117.589844,17.8828125 116.46875,17.4140625 115.078125,17.4140625 C113.671875,17.4140625 112.542969,17.8789062 111.691406,18.8085938 C110.839844,19.7382812 110.414062,20.9765625 110.414062,22.5234375 L110.414062,34.9921875 L103.640625,34.9921875 L103.640625,1.3828125 L110.414062,1.3828125 L110.414062,14.5078125 C111.976562,12.1328125 114.109375,10.9453125 116.8125,10.9453125 Z M131.695312,1.21875 C132.507812,0.40625 133.476562,0 134.601562,0 C135.726562,0 136.695312,0.40234375 137.507812,1.20703125 C138.320312,2.01171875 138.726562,2.96875 138.726562,4.078125 C138.726562,5.203125 138.320312,6.171875 137.507812,6.984375 C136.695312,7.796875 135.726562,8.203125 134.601562,8.203125 C133.476562,8.203125 132.507812,7.796875 131.695312,6.984375 C130.882812,6.171875 130.476562,5.203125 130.476562,4.078125 C130.476562,2.96875 130.882812,2.015625 131.695312,1.21875 Z M131.226562,11.4140625 L138,11.4140625 L138,34.9921875 L131.226562,34.9921875 L131.226562,11.4140625 Z M155.953125,10.9453125 C158.96875,10.9453125 161.335938,11.8945312 163.054688,13.7929688 C164.773438,15.6914062 165.632812,18.3125 165.632812,21.65625 L165.632812,34.9921875 L158.859375,34.9921875 L158.859375,22.5234375 C158.859375,20.9921875 158.433594,19.7578125 157.582031,18.8203125 C156.730469,17.8828125 155.609375,17.4140625 154.21875,17.4140625 C152.8125,17.4140625 151.683594,17.8789062 150.832031,18.8085938 C149.980469,19.7382812 149.554688,20.9765625 149.554688,22.5234375 L149.554688,34.9921875 L142.78125,34.9921875 L142.78125,11.4140625 L149.554688,11.4140625 L149.554688,14.5078125 C151.117188,12.1328125 153.25,10.9453125 155.953125,10.9453125 Z M187.804688,11.3671875 L194.578125,11.3671875 L194.578125,33.984375 C194.578125,36.15625 194.03125,38.0625 192.9375,39.703125 C191.84375,41.34375 190.378906,42.5859375 188.542969,43.4296875 C186.707031,44.2734375 184.648438,44.6953125 182.367188,44.6953125 C181.398438,44.6953125 180.425781,44.625 179.449219,44.484375 C178.472656,44.34375 177.421875,44.0703125 176.296875,43.6640625 C175.171875,43.2578125 174.179688,42.7421875 173.320312,42.1171875 C172.460938,41.4921875 171.726562,40.6445312 171.117188,39.5742188 C170.507812,38.5039062 170.164062,37.28125 170.085938,35.90625 L176.859375,35.90625 C176.953125,36.921875 177.5,37.703125 178.5,38.25 C179.5,38.796875 180.710938,39.0703125 182.132812,39.0703125 C183.648438,39.0703125 184.972656,38.6171875 186.105469,37.7109375 C187.238281,36.8046875 187.804688,35.65625 187.804688,34.265625 L187.804688,30.8671875 C186.117188,33.3359375 183.617188,34.5703125 180.304688,34.5703125 C178.304688,34.5703125 176.464844,34.0390625 174.785156,32.9765625 C173.105469,31.9140625 171.78125,30.4765625 170.8125,28.6640625 C169.84375,26.8515625 169.359375,24.8828125 169.359375,22.7578125 C169.359375,20.6171875 169.84375,18.640625 170.8125,16.828125 C171.78125,15.015625 173.105469,13.5820312 174.785156,12.5273438 C176.464844,11.4726562 178.304688,10.9453125 180.304688,10.9453125 C183.617188,10.9453125 186.117188,12.1796875 187.804688,14.6484375 L187.804688,11.3671875 Z M181.898438,28.3125 C183.554688,28.3125 184.953125,27.78125 186.09375,26.71875 C187.234375,25.65625 187.804688,24.3359375 187.804688,22.7578125 C187.804688,21.1796875 187.234375,19.8476562 186.09375,18.7617188 C184.953125,17.6757812 183.554688,17.1328125 181.898438,17.1328125 C180.273438,17.1328125 178.882812,17.6796875 177.726562,18.7734375 C176.570312,19.8671875 175.992188,21.1953125 175.992188,22.7578125 C175.992188,24.3046875 176.566406,25.6171875 177.714844,26.6953125 C178.863281,27.7734375 180.257812,28.3125 181.898438,28.3125 Z M208.851562,35.4609375 C205.742188,35.4609375 203.207031,34.7148438 201.246094,33.2226562 C199.285156,31.7304688 198.1875,29.6640625 197.953125,27.0234375 L204.445312,27.0234375 C204.507812,27.8203125 204.921875,28.4609375 205.6875,28.9453125 C206.453125,29.4296875 207.398438,29.671875 208.523438,29.671875 C209.523438,29.671875 210.300781,29.515625 210.855469,29.203125 C211.410156,28.890625 211.6875,28.453125 211.6875,27.890625 C211.6875,27.375 211.445312,26.953125 210.960938,26.625 C210.476562,26.296875 209.84375,26.0507812 209.0625,25.8867188 C208.28125,25.7226562 207.417969,25.5625 206.472656,25.40625 C205.527344,25.25 204.585938,25.03125 203.648438,24.75 C202.710938,24.46875 201.851562,24.109375 201.070312,23.671875 C200.289062,23.234375 199.65625,22.5898438 199.171875,21.7382812 C198.6875,20.8867188 198.445312,19.8671875 198.445312,18.6796875 C198.445312,16.4453125 199.292969,14.5976562 200.988281,13.1367188 C202.683594,11.6757812 204.953125,10.9453125 207.796875,10.9453125 C210.484375,10.9453125 212.789062,11.6328125 214.710938,13.0078125 C216.632812,14.3828125 217.734375,16.3203125 218.015625,18.8203125 L211.195312,18.8203125 C211.148438,18.1953125 210.804688,17.6640625 210.164062,17.2265625 C209.523438,16.7890625 208.6875,16.5703125 207.65625,16.5703125 C206.84375,16.5703125 206.191406,16.7070312 205.699219,16.9804688 C205.207031,17.2539062 204.960938,17.65625 204.960938,18.1875 C204.960938,18.671875 205.207031,19.0585938 205.699219,19.3476562 C206.191406,19.6367188 206.828125,19.8515625 207.609375,19.9921875 C208.390625,20.1328125 209.25,20.2734375 210.1875,20.4140625 C211.125,20.5546875 212.066406,20.7734375 213.011719,21.0703125 C213.957031,21.3671875 214.820312,21.7617188 215.601562,22.2539062 C216.382812,22.7460938 217.019531,23.46875 217.511719,24.421875 C218.003906,25.375 218.25,26.515625 218.25,27.84375 C218.25,30 217.347656,31.8085938 215.542969,33.2695312 C213.738281,34.7304688 211.507812,35.4609375 208.851562,35.4609375 Z M246.585938,17.859375 L240.796875,17.859375 L240.796875,25.2890625 C240.796875,26.5078125 241.167969,27.421875 241.910156,28.03125 C242.652344,28.640625 243.640625,28.9453125 244.875,28.9453125 C245.53125,28.9453125 246.101562,28.8828125 246.585938,28.7578125 L246.585938,34.9921875 C245.617188,35.2421875 244.53125,35.3671875 243.328125,35.3671875 C240.5,35.3671875 238.242188,34.484375 236.554688,32.71875 C234.867188,30.953125 234.023438,28.5078125 234.023438,25.3828125 L234.023438,17.859375 L229.640625,17.859375 L229.640625,11.4140625 L234.023438,11.4140625 L234.023438,5.2265625 L240.796875,5.2265625 L240.796875,11.4140625 L246.585938,11.4140625 L246.585938,17.859375 Z M260.554688,10.9453125 C262.257812,10.9453125 263.863281,11.2578125 265.371094,11.8828125 C266.878906,12.5078125 268.175781,13.3632812 269.261719,14.4492188 C270.347656,15.5351562 271.207031,16.8398438 271.839844,18.3632812 C272.472656,19.8867188 272.789062,21.5078125 272.789062,23.2265625 C272.789062,25.5234375 272.253906,27.609375 271.183594,29.484375 C270.113281,31.359375 268.644531,32.8242188 266.777344,33.8789062 C264.910156,34.9335938 262.835938,35.4609375 260.554688,35.4609375 C257.070312,35.4609375 254.15625,34.296875 251.8125,31.96875 C249.46875,29.640625 248.296875,26.7265625 248.296875,23.2265625 C248.296875,19.7265625 249.46875,16.8046875 251.8125,14.4609375 C254.15625,12.1171875 257.070312,10.9453125 260.554688,10.9453125 Z M260.554688,17.4140625 C258.945312,17.4140625 257.605469,17.9648438 256.535156,19.0664062 C255.464844,20.1679688 254.929688,21.5546875 254.929688,23.2265625 C254.929688,24.8515625 255.464844,26.21875 256.535156,27.328125 C257.605469,28.4375 258.945312,28.9921875 260.554688,28.9921875 C262.132812,28.9921875 263.460938,28.4375 264.539062,27.328125 C265.617188,26.21875 266.15625,24.8515625 266.15625,23.2265625 C266.15625,21.5546875 265.621094,20.1679688 264.550781,19.0664062 C263.480469,17.9648438 262.148438,17.4140625 260.554688,17.4140625 Z M303.773438,1.3828125 L310.546875,1.3828125 L310.546875,34.9921875 L303.773438,34.9921875 L303.773438,31.640625 C302.054688,34.1875 299.554688,35.4609375 296.273438,35.4609375 C294.273438,35.4609375 292.433594,34.9101562 290.753906,33.8085938 C289.074219,32.7070312 287.75,31.2148438 286.78125,29.3320313 C285.8125,27.4492188 285.328125,25.3984375 285.328125,23.1796875 C285.328125,20.9609375 285.8125,18.9101562 286.78125,17.0273438 C287.75,15.1445312 289.074219,13.6601562 290.753906,12.5742188 C292.433594,11.4882812 294.273438,10.9453125 296.273438,10.9453125 C299.554688,10.9453125 302.054688,12.2265625 303.773438,14.7890625 L303.773438,1.3828125 Z M297.867188,28.9921875 C299.523438,28.9921875 300.921875,28.4335938 302.0625,27.3164062 C303.203125,26.1992188 303.773438,24.8203125 303.773438,23.1796875 C303.773438,21.5546875 303.203125,20.1796875 302.0625,19.0546875 C300.921875,17.9296875 299.523438,17.3671875 297.867188,17.3671875 C296.242188,17.3671875 294.851562,17.9335938 293.695312,19.0664062 C292.539062,20.1992188 291.960938,21.5703125 291.960938,23.1796875 C291.960938,24.8046875 292.535156,26.1796875 293.683594,27.3046875 C294.832031,28.4296875 296.226562,28.9921875 297.867188,28.9921875 Z M326.273438,10.9453125 C327.976562,10.9453125 329.582031,11.2578125 331.089844,11.8828125 C332.597656,12.5078125 333.894531,13.3632812 334.980469,14.4492188 C336.066406,15.5351562 336.925781,16.8398438 337.558594,18.3632812 C338.191406,19.8867188 338.507812,21.5078125 338.507812,23.2265625 C338.507812,25.5234375 337.972656,27.609375 336.902344,29.484375 C335.832031,31.359375 334.363281,32.8242188 332.496094,33.8789062 C330.628906,34.9335938 328.554688,35.4609375 326.273438,35.4609375 C322.789062,35.4609375 319.875,34.296875 317.53125,31.96875 C315.1875,29.640625 314.015625,26.7265625 314.015625,23.2265625 C314.015625,19.7265625 315.1875,16.8046875 317.53125,14.4609375 C319.875,12.1171875 322.789062,10.9453125 326.273438,10.9453125 Z M326.273438,17.4140625 C324.664062,17.4140625 323.324219,17.9648438 322.253906,19.0664062 C321.183594,20.1679688 320.648438,21.5546875 320.648438,23.2265625 C320.648438,24.8515625 321.183594,26.21875 322.253906,27.328125 C323.324219,28.4375 324.664062,28.9921875 326.273438,28.9921875 C327.851562,28.9921875 329.179688,28.4375 330.257812,27.328125 C331.335938,26.21875 331.875,24.8515625 331.875,23.2265625 C331.875,21.5546875 331.339844,20.1679688 330.269531,19.0664062 C329.199219,17.9648438 327.867188,17.4140625 326.273438,17.4140625 Z" id="Combined-Shape"></path>
        </g>
    </g>
</svg>